<svg id="Layer_1" data-name="Layer 1" xmlns="http://www.w3.org/2000/svg" viewBox="0 0 1000 1000"><defs><style>.cls-1{fill:#010101;}</style></defs><path class="cls-1" d="M513.51,407.4l-.32,0-2.8,55.43,15.66-1.37Zm0,0-.32,0-2.8,55.43,15.66-1.37ZM395.3,434.32l-.75-8.54q-.53-6-2.89-8.52c-1.58-1.67-3.91-2.37-7-2.1l-7.92.69,2.77,31.65,6.33-.55c3.48-.31,6-1.43,7.6-3.38S395.67,438.54,395.3,434.32ZM513.51,407.4l-.32,0-2.8,55.43,15.66-1.37ZM395.3,434.32l-.75-8.54q-.53-6-2.89-8.52c-1.58-1.67-3.91-2.37-7-2.1l-7.92.69,2.77,31.65,6.33-.55c3.48-.31,6-1.43,7.6-3.38S395.67,438.54,395.3,434.32ZM513.51,407.4l-.32,0-2.8,55.43,15.66-1.37Zm-175.1,205-5-57.61c-.32-3.61-1.26-4.74-1.53-5s-1-.92-3.2-.73l-4.21.37,6.11,69.8,4.2-.36c2.21-.2,2.8-1,3-1.28S338.73,616,338.41,612.4Zm0,0-5-57.61c-.32-3.61-1.26-4.74-1.53-5s-1-.92-3.2-.73l-4.21.37,6.11,69.8,4.2-.36c2.21-.2,2.8-1,3-1.28S338.73,616,338.41,612.4Zm0,0-5-57.61c-.32-3.61-1.26-4.74-1.53-5s-1-.92-3.2-.73l-4.21.37,6.11,69.8,4.2-.36c2.21-.2,2.8-1,3-1.28S338.73,616,338.41,612.4Zm0,0-5-57.61c-.32-3.61-1.26-4.74-1.53-5s-1-.92-3.2-.73l-4.21.37,6.11,69.8,4.2-.36c2.21-.2,2.8-1,3-1.28S338.73,616,338.41,612.4Zm0,0-5-57.61c-.32-3.61-1.26-4.74-1.53-5s-1-.92-3.2-.73l-4.21.37,6.11,69.8,4.2-.36c2.21-.2,2.8-1,3-1.28S338.73,616,338.41,612.4Zm0,0-5-57.61c-.32-3.61-1.26-4.74-1.53-5s-1-.92-3.2-.73l-4.21.37,6.11,69.8,4.2-.36c2.21-.2,2.8-1,3-1.28S338.73,616,338.41,612.4Zm22-2.72-4.9-56q-1.17-13.44-8.28-19.85t-20.07-5.26l-26.59,2.33,9.69,110.78,26.59-2.32q13-1.14,18.86-8.67T360.41,609.68ZM341.5,620.42a8.44,8.44,0,0,1-6.35,3.11l-8.86.77-6.93-79.13,8.87-.77a8.42,8.42,0,0,1,6.79,2c1.67,1.55,2.68,4.23,3,8l5,57.61Q343.56,617.69,341.5,620.42Zm-8.13-65.63c-.32-3.61-1.26-4.74-1.53-5s-1-.92-3.2-.73l-4.21.37,6.11,69.8,4.2-.36c2.21-.2,2.8-1,3-1.28s1-1.57.64-5.19Zm5,57.61-5-57.61c-.32-3.61-1.26-4.74-1.53-5s-1-.92-3.2-.73l-4.21.37,6.11,69.8,4.2-.36c2.21-.2,2.8-1,3-1.28S338.73,616,338.41,612.4Zm0,0-5-57.61c-.32-3.61-1.26-4.74-1.53-5s-1-.92-3.2-.73l-4.21.37,6.11,69.8,4.2-.36c2.21-.2,2.8-1,3-1.28S338.73,616,338.41,612.4Zm0,0-5-57.61c-.32-3.61-1.26-4.74-1.53-5s-1-.92-3.2-.73l-4.21.37,6.11,69.8,4.2-.36c2.21-.2,2.8-1,3-1.28S338.73,616,338.41,612.4Zm0,0-5-57.61c-.32-3.61-1.26-4.74-1.53-5s-1-.92-3.2-.73l-4.21.37,6.11,69.8,4.2-.36c2.21-.2,2.8-1,3-1.28S338.73,616,338.41,612.4Zm0,0-5-57.61c-.32-3.61-1.26-4.74-1.53-5s-1-.92-3.2-.73l-4.21.37,6.11,69.8,4.2-.36c2.21-.2,2.8-1,3-1.28S338.73,616,338.41,612.4Zm0,0-5-57.61c-.32-3.61-1.26-4.74-1.53-5s-1-.92-3.2-.73l-4.21.37,6.11,69.8,4.2-.36c2.21-.2,2.8-1,3-1.28S338.73,616,338.41,612.4ZM395.3,434.32l-.75-8.54q-.53-6-2.89-8.52c-1.58-1.67-3.91-2.37-7-2.1l-7.92.69,2.77,31.65,6.33-.55c3.48-.31,6-1.43,7.6-3.38S395.67,438.54,395.3,434.32ZM513.51,407.4l-.32,0-2.8,55.43,15.66-1.37Zm-175.1,205-5-57.61c-.32-3.61-1.26-4.74-1.53-5s-1-.92-3.2-.73l-4.21.37,6.11,69.8,4.2-.36c2.21-.2,2.8-1,3-1.28S338.73,616,338.41,612.4Zm0,0-5-57.61c-.32-3.61-1.26-4.74-1.53-5s-1-.92-3.2-.73l-4.21.37,6.11,69.8,4.2-.36c2.21-.2,2.8-1,3-1.28S338.73,616,338.41,612.4Zm0,0-5-57.61c-.32-3.61-1.26-4.74-1.53-5s-1-.92-3.2-.73l-4.21.37,6.11,69.8,4.2-.36c2.21-.2,2.8-1,3-1.28S338.73,616,338.41,612.4Zm0,0-5-57.61c-.32-3.61-1.26-4.74-1.53-5s-1-.92-3.2-.73l-4.21.37,6.11,69.8,4.2-.36c2.21-.2,2.8-1,3-1.28S338.73,616,338.41,612.4Zm0,0-5-57.61c-.32-3.61-1.26-4.74-1.53-5s-1-.92-3.2-.73l-4.21.37,6.11,69.8,4.2-.36c2.21-.2,2.8-1,3-1.28S338.73,616,338.41,612.4Zm0,0-5-57.61c-.32-3.61-1.26-4.74-1.53-5s-1-.92-3.2-.73l-4.21.37,6.11,69.8,4.2-.36c2.21-.2,2.8-1,3-1.28S338.73,616,338.41,612.4Zm22-2.72-4.9-56q-1.17-13.44-8.28-19.85t-20.07-5.26l-26.59,2.33,9.69,110.78,26.59-2.32q13-1.14,18.86-8.67T360.41,609.68ZM341.5,620.42a8.44,8.44,0,0,1-6.35,3.11l-8.86.77-6.93-79.13,8.87-.77a8.42,8.42,0,0,1,6.79,2c1.67,1.55,2.68,4.23,3,8l5,57.61Q343.56,617.69,341.5,620.42Zm-8.13-65.63c-.32-3.61-1.26-4.74-1.53-5s-1-.92-3.2-.73l-4.21.37,6.11,69.8,4.2-.36c2.21-.2,2.8-1,3-1.28s1-1.57.64-5.19Zm5,57.61-5-57.61c-.32-3.61-1.26-4.74-1.53-5s-1-.92-3.2-.73l-4.21.37,6.11,69.8,4.2-.36c2.21-.2,2.8-1,3-1.28S338.73,616,338.41,612.4Zm0,0-5-57.61c-.32-3.61-1.26-4.74-1.53-5s-1-.92-3.2-.73l-4.21.37,6.11,69.8,4.2-.36c2.21-.2,2.8-1,3-1.28S338.73,616,338.41,612.4Zm0,0-5-57.61c-.32-3.61-1.26-4.74-1.53-5s-1-.92-3.2-.73l-4.21.37,6.11,69.8,4.2-.36c2.21-.2,2.8-1,3-1.28S338.73,616,338.41,612.4Zm0,0-5-57.61c-.32-3.61-1.26-4.74-1.53-5s-1-.92-3.2-.73l-4.21.37,6.11,69.8,4.2-.36c2.21-.2,2.8-1,3-1.28S338.73,616,338.41,612.4Zm0,0-5-57.61c-.32-3.61-1.26-4.74-1.53-5s-1-.92-3.2-.73l-4.21.37,6.11,69.8,4.2-.36c2.21-.2,2.8-1,3-1.28S338.73,616,338.41,612.4Zm0,0-5-57.61c-.32-3.61-1.26-4.74-1.53-5s-1-.92-3.2-.73l-4.21.37,6.11,69.8,4.2-.36c2.21-.2,2.8-1,3-1.28S338.73,616,338.41,612.4ZM395.3,434.32l-.75-8.54q-.53-6-2.89-8.52c-1.58-1.67-3.91-2.37-7-2.1l-7.92.69,2.77,31.65,6.33-.55c3.48-.31,6-1.43,7.6-3.38S395.67,438.54,395.3,434.32ZM513.51,407.4l-.32,0-2.8,55.43,15.66-1.37Zm-175.1,205-5-57.61c-.32-3.61-1.26-4.74-1.53-5s-1-.92-3.2-.73l-4.21.37,6.11,69.8,4.2-.36c2.21-.2,2.8-1,3-1.28S338.73,616,338.41,612.4Zm0,0-5-57.61c-.32-3.61-1.26-4.74-1.53-5s-1-.92-3.2-.73l-4.21.37,6.11,69.8,4.2-.36c2.21-.2,2.8-1,3-1.28S338.73,616,338.41,612.4Zm0,0-5-57.61c-.32-3.61-1.26-4.74-1.53-5s-1-.92-3.2-.73l-4.21.37,6.11,69.8,4.2-.36c2.21-.2,2.8-1,3-1.28S338.73,616,338.41,612.4Zm0,0-5-57.61c-.32-3.61-1.26-4.74-1.53-5s-1-.92-3.2-.73l-4.21.37,6.11,69.8,4.2-.36c2.21-.2,2.8-1,3-1.28S338.73,616,338.41,612.4Zm0,0-5-57.61c-.32-3.61-1.26-4.74-1.53-5s-1-.92-3.2-.73l-4.21.37,6.11,69.8,4.2-.36c2.21-.2,2.8-1,3-1.28S338.73,616,338.41,612.4Zm0,0-5-57.61c-.32-3.61-1.26-4.74-1.53-5s-1-.92-3.2-.73l-4.21.37,6.11,69.8,4.2-.36c2.21-.2,2.8-1,3-1.28S338.73,616,338.41,612.4Zm22-2.72-4.9-56q-1.17-13.44-8.28-19.85t-20.07-5.26l-26.59,2.33,9.69,110.78,26.59-2.32q13-1.14,18.86-8.67T360.41,609.68ZM341.5,620.42a8.44,8.44,0,0,1-6.35,3.11l-8.86.77-6.93-79.13,8.87-.77a8.42,8.42,0,0,1,6.79,2c1.67,1.55,2.68,4.23,3,8l5,57.61Q343.56,617.69,341.5,620.42Zm-8.13-65.63c-.32-3.61-1.26-4.74-1.53-5s-1-.92-3.2-.73l-4.21.37,6.11,69.8,4.2-.36c2.21-.2,2.8-1,3-1.28s1-1.57.64-5.19Zm5,57.61-5-57.61c-.32-3.61-1.26-4.74-1.53-5s-1-.92-3.2-.73l-4.21.37,6.11,69.8,4.2-.36c2.21-.2,2.8-1,3-1.28S338.73,616,338.41,612.4Zm0,0-5-57.61c-.32-3.61-1.26-4.74-1.53-5s-1-.92-3.2-.73l-4.21.37,6.11,69.8,4.2-.36c2.21-.2,2.8-1,3-1.28S338.73,616,338.41,612.4Zm0,0-5-57.61c-.32-3.61-1.26-4.74-1.53-5s-1-.92-3.2-.73l-4.21.37,6.11,69.8,4.2-.36c2.21-.2,2.8-1,3-1.28S338.73,616,338.41,612.4Zm0,0-5-57.61c-.32-3.61-1.26-4.74-1.53-5s-1-.92-3.2-.73l-4.21.37,6.11,69.8,4.2-.36c2.21-.2,2.8-1,3-1.28S338.73,616,338.41,612.4ZM395.3,434.32l-.75-8.54q-.53-6-2.89-8.52c-1.58-1.67-3.91-2.37-7-2.1l-7.92.69,2.77,31.65,6.33-.55c3.48-.31,6-1.43,7.6-3.38S395.67,438.54,395.3,434.32Zm6.13,123.77-.75-8.55c-.35-4.07-1.34-5.4-1.63-5.71-.54-.57-1.6-.79-3.15-.65l-3.26.28,2,22.33,1.67-.15c2.15-.19,3.63-.75,4.37-1.67C401,563.54,401.78,562.1,401.43,558.09ZM513.51,407.4l-.32,0-2.8,55.43,15.66-1.37Zm-175.1,205-5-57.61c-.32-3.61-1.26-4.74-1.53-5s-1-.92-3.2-.73l-4.21.37,6.11,69.8,4.2-.36c2.21-.2,2.8-1,3-1.28S338.73,616,338.41,612.4Zm0,0-5-57.61c-.32-3.61-1.26-4.74-1.53-5s-1-.92-3.2-.73l-4.21.37,6.11,69.8,4.2-.36c2.21-.2,2.8-1,3-1.28S338.73,616,338.41,612.4Zm0,0-5-57.61c-.32-3.61-1.26-4.74-1.53-5s-1-.92-3.2-.73l-4.21.37,6.11,69.8,4.2-.36c2.21-.2,2.8-1,3-1.28S338.73,616,338.41,612.4Zm0,0-5-57.61c-.32-3.61-1.26-4.74-1.53-5s-1-.92-3.2-.73l-4.21.37,6.11,69.8,4.2-.36c2.21-.2,2.8-1,3-1.28S338.73,616,338.41,612.4Zm22-2.72-4.9-56q-1.17-13.44-8.28-19.85t-20.07-5.26l-26.59,2.33,9.69,110.78,26.59-2.32q13-1.14,18.86-8.67T360.41,609.68ZM341.5,620.42a8.44,8.44,0,0,1-6.35,3.11l-8.86.77-6.93-79.13,8.87-.77a8.42,8.42,0,0,1,6.79,2c1.67,1.55,2.68,4.23,3,8l5,57.61Q343.56,617.69,341.5,620.42Zm-8.13-65.63c-.32-3.61-1.26-4.74-1.53-5s-1-.92-3.2-.73l-4.21.37,6.11,69.8,4.2-.36c2.21-.2,2.8-1,3-1.28s1-1.57.64-5.19Zm5,57.61-5-57.61c-.32-3.61-1.26-4.74-1.53-5s-1-.92-3.2-.73l-4.21.37,6.11,69.8,4.2-.36c2.21-.2,2.8-1,3-1.28S338.73,616,338.41,612.4Zm0,0-5-57.61c-.32-3.61-1.26-4.74-1.53-5s-1-.92-3.2-.73l-4.21.37,6.11,69.8,4.2-.36c2.21-.2,2.8-1,3-1.28S338.73,616,338.41,612.4Zm0,0-5-57.61c-.32-3.61-1.26-4.74-1.53-5s-1-.92-3.2-.73l-4.21.37,6.11,69.8,4.2-.36c2.21-.2,2.8-1,3-1.28S338.73,616,338.41,612.4Zm0,0-5-57.61c-.32-3.61-1.26-4.74-1.53-5s-1-.92-3.2-.73l-4.21.37,6.11,69.8,4.2-.36c2.21-.2,2.8-1,3-1.28S338.73,616,338.41,612.4ZM395.3,434.32l-.75-8.54q-.53-6-2.89-8.52c-1.58-1.67-3.91-2.37-7-2.1l-7.92.69,2.77,31.65,6.33-.55c3.48-.31,6-1.43,7.6-3.38S395.67,438.54,395.3,434.32ZM513.51,407.4l-.32,0-2.8,55.43,15.66-1.37ZM401.43,558.09l-.75-8.55c-.35-4.07-1.34-5.4-1.63-5.71-.54-.57-1.6-.79-3.15-.65l-3.26.28,2,22.33,1.67-.15c2.15-.19,3.63-.75,4.37-1.67C401,563.54,401.78,562.1,401.43,558.09Zm-63,54.31-5-57.61c-.32-3.61-1.26-4.74-1.53-5s-1-.92-3.2-.73l-4.21.37,6.11,69.8,4.2-.36c2.21-.2,2.8-1,3-1.28S338.73,616,338.41,612.4Zm0,0-5-57.61c-.32-3.61-1.26-4.74-1.53-5s-1-.92-3.2-.73l-4.21.37,6.11,69.8,4.2-.36c2.21-.2,2.8-1,3-1.28S338.73,616,338.41,612.4Zm0,0-5-57.61c-.32-3.61-1.26-4.74-1.53-5s-1-.92-3.2-.73l-4.21.37,6.11,69.8,4.2-.36c2.21-.2,2.8-1,3-1.28S338.73,616,338.41,612.4Zm0,0-5-57.61c-.32-3.61-1.26-4.74-1.53-5s-1-.92-3.2-.73l-4.21.37,6.11,69.8,4.2-.36c2.21-.2,2.8-1,3-1.28S338.73,616,338.41,612.4Zm22-2.72-4.9-56q-1.17-13.44-8.28-19.85t-20.07-5.26l-26.59,2.33,9.69,110.78,26.59-2.32q13-1.14,18.86-8.67T360.41,609.68ZM341.5,620.42a8.44,8.44,0,0,1-6.35,3.11l-8.86.77-6.93-79.13,8.87-.77a8.42,8.42,0,0,1,6.79,2c1.67,1.55,2.68,4.23,3,8l5,57.61Q343.56,617.69,341.5,620.42Zm-8.13-65.63c-.32-3.61-1.26-4.74-1.53-5s-1-.92-3.2-.73l-4.21.37,6.11,69.8,4.2-.36c2.21-.2,2.8-1,3-1.28s1-1.57.64-5.19Zm5,57.61-5-57.61c-.32-3.61-1.26-4.74-1.53-5s-1-.92-3.2-.73l-4.21.37,6.11,69.8,4.2-.36c2.21-.2,2.8-1,3-1.28S338.73,616,338.41,612.4Zm0,0-5-57.61c-.32-3.61-1.26-4.74-1.53-5s-1-.92-3.2-.73l-4.21.37,6.11,69.8,4.2-.36c2.21-.2,2.8-1,3-1.28S338.73,616,338.41,612.4ZM395.3,434.32l-.75-8.54q-.53-6-2.89-8.52c-1.58-1.67-3.91-2.37-7-2.1l-7.92.69,2.77,31.65,6.33-.55c3.48-.31,6-1.43,7.6-3.38S395.67,438.54,395.3,434.32Zm6.13,123.77-.75-8.55c-.35-4.07-1.34-5.4-1.63-5.71-.54-.57-1.6-.79-3.15-.65l-3.26.28,2,22.33,1.67-.15c2.15-.19,3.63-.75,4.37-1.67C401,563.54,401.78,562.1,401.43,558.09Zm0,0-.75-8.55c-.35-4.07-1.34-5.4-1.63-5.71-.54-.57-1.6-.79-3.15-.65l-3.26.28,2,22.33,1.67-.15c2.15-.19,3.63-.75,4.37-1.67C401,563.54,401.78,562.1,401.43,558.09Zm0,0-.75-8.55c-.35-4.07-1.34-5.4-1.63-5.71-.54-.57-1.6-.79-3.15-.65l-3.26.28,2,22.33,1.67-.15c2.15-.19,3.63-.75,4.37-1.67C401,563.54,401.78,562.1,401.43,558.09Zm0,0-.75-8.55c-.35-4.07-1.34-5.4-1.63-5.71-.54-.57-1.6-.79-3.15-.65l-3.26.28,2,22.33,1.67-.15c2.15-.19,3.63-.75,4.37-1.67C401,563.54,401.78,562.1,401.43,558.09ZM430,625.35a73.08,73.08,0,0,1-1-7.64l-1.7-19.47q-.87-9.81-4-15.44a13.65,13.65,0,0,0-9.62-7l0-.32q11-5.58,9.48-22.84l-.6-6.8q-1.12-13-7.85-18.69t-20.17-4.53l-25.8,2.25,9.69,110.79,17.41-1.53-4.15-47.48,6-.52q6-.52,8.73,2.26t3.38,10.39l1.78,20.26a76.37,76.37,0,0,0,1.06,8.52,25.39,25.39,0,0,0,1.71,4.95L432.12,631A19.16,19.16,0,0,1,430,625.35Zm-25.77-58.42q-2.37,2.93-7.6,3.37l-6.33.56-2.77-31.65,7.92-.7q4.59-.39,7,2.11c1.58,1.67,2.55,4.5,2.9,8.51l.74,8.55Q406.65,564,404.27,566.93Zm-3.59-17.39c-.35-4.07-1.34-5.4-1.63-5.71-.54-.57-1.6-.79-3.15-.65l-3.26.28,2,22.33,1.67-.15c2.15-.19,3.63-.75,4.37-1.67.36-.43,1.14-1.87.79-5.88Zm.75,8.55-.75-8.55c-.35-4.07-1.34-5.4-1.63-5.71-.54-.57-1.6-.79-3.15-.65l-3.26.28,2,22.33,1.67-.15c2.15-.19,3.63-.75,4.37-1.67C401,563.54,401.78,562.1,401.43,558.09Zm0,0-.75-8.55c-.35-4.07-1.34-5.4-1.63-5.71-.54-.57-1.6-.79-3.15-.65l-3.26.28,2,22.33,1.67-.15c2.15-.19,3.63-.75,4.37-1.67C401,563.54,401.78,562.1,401.43,558.09Zm90.87,51.69-30.07,2.63-3-34,23.89-2.09-1.38-15.82-23.9,2.09-2.56-29.28,30.07-2.63L484,514.82,436.52,519l9.69,110.78,47.48-4.15ZM513.51,407.4l-.32,0-2.8,55.43,15.66-1.37ZM492.3,609.78l-30.07,2.63-3-34,23.89-2.09-1.38-15.82-23.9,2.09-2.56-29.28,30.07-2.63L484,514.82,436.52,519l9.69,110.78,47.48-4.15Zm-90.87-51.69-.75-8.55c-.35-4.07-1.34-5.4-1.63-5.71-.54-.57-1.6-.79-3.15-.65l-3.26.28,2,22.33,1.67-.15c2.15-.19,3.63-.75,4.37-1.67C401,563.54,401.78,562.1,401.43,558.09Zm0,0-.75-8.55c-.35-4.07-1.34-5.4-1.63-5.71-.54-.57-1.6-.79-3.15-.65l-3.26.28,2,22.33,1.67-.15c2.15-.19,3.63-.75,4.37-1.67C401,563.54,401.78,562.1,401.43,558.09ZM430,625.35a73.08,73.08,0,0,1-1-7.64l-1.7-19.47q-.87-9.81-4-15.44a13.65,13.65,0,0,0-9.62-7l0-.32q11-5.58,9.48-22.84l-.6-6.8q-1.12-13-7.85-18.69t-20.17-4.53l-25.8,2.25,9.69,110.79,17.41-1.53-4.15-47.48,6-.52q6-.52,8.73,2.26t3.38,10.39l1.78,20.26a76.37,76.37,0,0,0,1.06,8.52,25.39,25.39,0,0,0,1.71,4.95L432.12,631A19.16,19.16,0,0,1,430,625.35Zm-25.77-58.42q-2.37,2.93-7.6,3.37l-6.33.56-2.77-31.65,7.92-.7q4.59-.39,7,2.11c1.58,1.67,2.55,4.5,2.9,8.51l.74,8.55Q406.65,564,404.27,566.93Zm-3.59-17.39c-.35-4.07-1.34-5.4-1.63-5.71-.54-.57-1.6-.79-3.15-.65l-3.26.28,2,22.33,1.67-.15c2.15-.19,3.63-.75,4.37-1.67.36-.43,1.14-1.87.79-5.88Zm.75,8.55-.75-8.55c-.35-4.07-1.34-5.4-1.63-5.71-.54-.57-1.6-.79-3.15-.65l-3.26.28,2,22.33,1.67-.15c2.15-.19,3.63-.75,4.37-1.67C401,563.54,401.78,562.1,401.43,558.09Zm0,0-.75-8.55c-.35-4.07-1.34-5.4-1.63-5.71-.54-.57-1.6-.79-3.15-.65l-3.26.28,2,22.33,1.67-.15c2.15-.19,3.63-.75,4.37-1.67C401,563.54,401.78,562.1,401.43,558.09Zm-63,54.31-5-57.61c-.32-3.61-1.26-4.74-1.53-5s-1-.92-3.2-.73l-4.21.37,6.11,69.8,4.2-.36c2.21-.2,2.8-1,3-1.28S338.73,616,338.41,612.4Zm0,0-5-57.61c-.32-3.61-1.26-4.74-1.53-5s-1-.92-3.2-.73l-4.21.37,6.11,69.8,4.2-.36c2.21-.2,2.8-1,3-1.28S338.73,616,338.41,612.4Zm22-2.72-4.9-56q-1.17-13.44-8.28-19.85t-20.07-5.26l-26.59,2.33,9.69,110.78,26.59-2.32q13-1.14,18.86-8.67T360.41,609.68ZM341.5,620.42a8.44,8.44,0,0,1-6.35,3.11l-8.86.77-6.93-79.13,8.87-.77a8.42,8.42,0,0,1,6.79,2c1.67,1.55,2.68,4.23,3,8l5,57.61Q343.56,617.69,341.5,620.42Zm-8.13-65.63c-.32-3.61-1.26-4.74-1.53-5s-1-.92-3.2-.73l-4.21.37,6.11,69.8,4.2-.36c2.21-.2,2.8-1,3-1.28s1-1.57.64-5.19Zm5,57.61-5-57.61c-.32-3.61-1.26-4.74-1.53-5s-1-.92-3.2-.73l-4.21.37,6.11,69.8,4.2-.36c2.21-.2,2.8-1,3-1.28S338.73,616,338.41,612.4Zm0,0-5-57.61c-.32-3.61-1.26-4.74-1.53-5s-1-.92-3.2-.73l-4.21.37,6.11,69.8,4.2-.36c2.21-.2,2.8-1,3-1.28S338.73,616,338.41,612.4ZM395.3,434.32l-.75-8.54q-.53-6-2.89-8.52c-1.58-1.67-3.91-2.37-7-2.1l-7.92.69,2.77,31.65,6.33-.55c3.48-.31,6-1.43,7.6-3.38S395.67,438.54,395.3,434.32ZM513.51,407.4l-.32,0-2.8,55.43,15.66-1.37Zm-175.1,205-5-57.61c-.32-3.61-1.26-4.74-1.53-5s-1-.92-3.2-.73l-4.21.37,6.11,69.8,4.2-.36c2.21-.2,2.8-1,3-1.28S338.73,616,338.41,612.4Zm0,0-5-57.61c-.32-3.61-1.26-4.74-1.53-5s-1-.92-3.2-.73l-4.21.37,6.11,69.8,4.2-.36c2.21-.2,2.8-1,3-1.28S338.73,616,338.41,612.4Zm22-2.72-4.9-56q-1.17-13.44-8.28-19.85t-20.07-5.26l-26.59,2.33,9.69,110.78,26.59-2.32q13-1.14,18.86-8.67T360.41,609.68ZM341.5,620.42a8.44,8.44,0,0,1-6.35,3.11l-8.86.77-6.93-79.13,8.87-.77a8.42,8.42,0,0,1,6.79,2c1.67,1.55,2.68,4.23,3,8l5,57.61Q343.56,617.69,341.5,620.42Zm-8.13-65.63c-.32-3.61-1.26-4.74-1.53-5s-1-.92-3.2-.73l-4.21.37,6.11,69.8,4.2-.36c2.21-.2,2.8-1,3-1.28s1-1.57.64-5.19ZM395.3,434.32l-.75-8.54q-.53-6-2.89-8.52c-1.58-1.67-3.91-2.37-7-2.1l-7.92.69,2.77,31.65,6.33-.55c3.48-.31,6-1.43,7.6-3.38S395.67,438.54,395.3,434.32Zm6.13,123.77-.75-8.55c-.35-4.07-1.34-5.4-1.63-5.71-.54-.57-1.6-.79-3.15-.65l-3.26.28,2,22.33,1.67-.15c2.15-.19,3.63-.75,4.37-1.67C401,563.54,401.78,562.1,401.43,558.09Zm0,0-.75-8.55c-.35-4.07-1.34-5.4-1.63-5.71-.54-.57-1.6-.79-3.15-.65l-3.26.28,2,22.33,1.67-.15c2.15-.19,3.63-.75,4.37-1.67C401,563.54,401.78,562.1,401.43,558.09ZM430,625.35a73.08,73.08,0,0,1-1-7.64l-1.7-19.47q-.87-9.81-4-15.44a13.65,13.65,0,0,0-9.62-7l0-.32q11-5.58,9.48-22.84l-.6-6.8q-1.12-13-7.85-18.69t-20.17-4.53l-25.8,2.25,9.69,110.79,17.41-1.53-4.15-47.48,6-.52q6-.52,8.73,2.26t3.38,10.39l1.78,20.26a76.37,76.37,0,0,0,1.06,8.52,25.39,25.39,0,0,0,1.71,4.95L432.12,631A19.16,19.16,0,0,1,430,625.35Zm-25.77-58.42q-2.37,2.93-7.6,3.37l-6.33.56-2.77-31.65,7.92-.7q4.59-.39,7,2.11c1.58,1.67,2.55,4.5,2.9,8.51l.74,8.55Q406.65,564,404.27,566.93Zm-3.59-17.39c-.35-4.07-1.34-5.4-1.63-5.71-.54-.57-1.6-.79-3.15-.65l-3.26.28,2,22.33,1.67-.15c2.15-.19,3.63-.75,4.37-1.67.36-.43,1.14-1.87.79-5.88Zm91.62,60.24-30.07,2.63-3-34,23.89-2.09-1.38-15.82-23.9,2.09-2.56-29.28,30.07-2.63L484,514.82,436.52,519l9.69,110.78,47.48-4.15ZM513.51,407.4l-.32,0-2.8,55.43,15.66-1.37ZM527,563.22l-.91,17.85,5-.43Zm0,0-.91,17.85,5-.43Zm35.66,56.35L535,510.36l-23.59,2.07L503,624.79l16.15-1.41,1.27-22,19.78-1.73,0-.32,5.09,21.72ZM521.18,586.2l2.8-55.42.32,0,12.55,54.08Zm5.85-23-.91,17.85,5-.43Zm35.66,56.35L535,510.36l-23.59,2.07L503,624.79l16.15-1.41,1.27-22,19.78-1.73,0-.32,5.09,21.72ZM521.18,586.2l2.8-55.42.32,0,12.55,54.08Zm5.85-23-.91,17.85,5-.43Zm-64.8,49.19-3-34,23.89-2.09-1.38-15.82-23.9,2.09-2.56-29.28,30.07-2.63L484,514.82,436.52,519l9.69,110.78,47.48-4.15-1.39-15.83ZM430,625.35a73.08,73.08,0,0,1-1-7.64l-1.7-19.47q-.87-9.81-4-15.44a13.65,13.65,0,0,0-9.62-7l0-.32q11-5.58,9.48-22.84l-.6-6.8q-1.12-13-7.85-18.69t-20.17-4.53l-25.8,2.25,9.69,110.79,17.41-1.53-4.15-47.48,6-.52q6-.52,8.73,2.26t3.38,10.39l1.78,20.26a76.37,76.37,0,0,0,1.06,8.52,25.39,25.39,0,0,0,1.71,4.95L432.12,631A19.16,19.16,0,0,1,430,625.35Zm-25.77-58.42q-2.37,2.93-7.6,3.37l-6.33.56-2.77-31.65,7.92-.7q4.59-.39,7,2.11c1.58,1.67,2.55,4.5,2.9,8.51l.74,8.55Q406.65,564,404.27,566.93Zm-3.59-17.39c-.35-4.07-1.34-5.4-1.63-5.71-.54-.57-1.6-.79-3.15-.65l-3.26.28,2,22.33,1.67-.15c2.15-.19,3.63-.75,4.37-1.67.36-.43,1.14-1.87.79-5.88Zm-40.27,60.14-4.9-56q-1.17-13.44-8.28-19.85t-20.07-5.26l-26.59,2.33,9.69,110.78,26.59-2.32q13-1.14,18.86-8.67T360.41,609.68ZM341.5,620.42a8.44,8.44,0,0,1-6.35,3.11l-8.86.77-6.93-79.13,8.87-.77a8.42,8.42,0,0,1,6.79,2c1.67,1.55,2.68,4.23,3,8l5,57.61Q343.56,617.69,341.5,620.42Zm-8.13-65.63c-.32-3.61-1.26-4.74-1.53-5s-1-.92-3.2-.73l-4.21.37,6.11,69.8,4.2-.36c2.21-.2,2.8-1,3-1.28s1-1.57.64-5.19ZM395.3,434.32l-.75-8.54q-.53-6-2.89-8.52c-1.58-1.67-3.91-2.37-7-2.1l-7.92.69,2.77,31.65,6.33-.55c3.48-.31,6-1.43,7.6-3.38S395.67,438.54,395.3,434.32ZM513.51,407.4l-.32,0-2.8,55.43,15.66-1.37ZM806.68,722l-.72-8.21-20.55,1.79A12.4,12.4,0,0,1,772,704.35l-3.6-41.09a12.41,12.41,0,0,1,11.24-13.41l20.56-1.8L771.44,319.22,750.89,321a12.41,12.41,0,0,1-13.4-11.26l-3.6-41.1a12.41,12.41,0,0,1,11.24-13.41l20.56-1.8-.72-8.22a24.7,24.7,0,0,0-26.82-22.5L512.48,242.48,324.21,259,98.54,278.69A24.7,24.7,0,0,0,76,305.51l.72,8.21,20.55-1.79a12.4,12.4,0,0,1,13.4,11.26l3.6,41.09a12.41,12.41,0,0,1-11.24,13.41l-20.56,1.8,28.77,328.83,20.55-1.8a12.41,12.41,0,0,1,13.4,11.26l3.6,41.1a12.41,12.41,0,0,1-11.24,13.41L117,774.09l.72,8.22a24.7,24.7,0,0,0,26.82,22.5l225.67-19.75,188.27-16.47,225.67-19.74A24.7,24.7,0,0,0,806.68,722ZM646.49,263.88l41.09-3.6A12.43,12.43,0,0,1,701,271.54l3.59,41.1a12.41,12.41,0,0,1-11.25,13.41l-41.1,3.6a12.42,12.42,0,0,1-13.41-11.26l-3.6-41.09A12.43,12.43,0,0,1,646.49,263.88ZM636.41,488.82,620,490.26l-7.34-83.88-.32,0-5.32,85-14.56,1.27-20-82.77-.32,0,7.34,83.87-15.19,1.33-9.69-110.78,24.84-2.17,18,78.32.32,0,4.14-80.26L626.71,378ZM547.84,272.51l41.1-3.6a12.42,12.42,0,0,1,13.41,11.26l3.6,41.1a12.42,12.42,0,0,1-11.26,13.41l-41.09,3.6A12.43,12.43,0,0,1,540.18,327l-3.6-41.09A12.43,12.43,0,0,1,547.84,272.51ZM524.16,387l27.74,109.2-17.41,1.53L529.4,476l0,.31-19.79,1.73-1.26,22-16.15,1.41,8.35-112.36ZM450.79,281l38.94-3.41a12.42,12.42,0,0,1,13.41,11.26l3.6,41.1a12.42,12.42,0,0,1-11.26,13.41l-38.93,3.41a12.41,12.41,0,0,1-13.4-11.26l-3.6-41.09A12.42,12.42,0,0,1,450.79,281ZM473.2,391.47l1.39,15.82-30.07,2.63,2.56,29.28,23.9-2.09,1.38,15.83L448.46,455l3,34,30.07-2.63,1.39,15.83-47.48,4.15-9.7-110.78Zm-60.79,37.85q1.5,17.25-9.49,22.84l0,.31a13.65,13.65,0,0,1,9.62,7q3.12,5.64,4,15.44l1.71,19.47a73.36,73.36,0,0,0,1,7.65,19.68,19.68,0,0,0,2.09,5.64l-17.72,1.55a25.47,25.47,0,0,1-1.71-5,75.73,75.73,0,0,1-1.07-8.51l-1.77-20.26q-.66-7.6-3.38-10.39T387,462.8l-6,.53,4.15,47.48-17.41,1.52L358,401.55l25.8-2.26q13.44-1.17,20.17,4.53t7.85,18.69ZM352.72,289.58l38.93-3.4a12.41,12.41,0,0,1,13.4,11.25l3.59,41.1a12.4,12.4,0,0,1-11.24,13.41l-38.93,3.41a12.44,12.44,0,0,1-13.42-11.26L341.46,303A12.43,12.43,0,0,1,352.72,289.58Zm-7.07,113.05L347,418.45l-18.2,1.6L337.14,515l-17.41,1.53-8.31-95-18.2,1.59-1.38-15.83ZM253.51,298.26l41.09-3.59A12.42,12.42,0,0,1,308,305.92l3.59,41.1a12.41,12.41,0,0,1-11.26,13.41L259.26,364a12.44,12.44,0,0,1-13.42-11.26l-3.59-41.09A12.42,12.42,0,0,1,253.51,298.26ZM147.2,361.4l-3.6-41.09a12.43,12.43,0,0,1,11.26-13.42L196,303.3a12.41,12.41,0,0,1,13.41,11.25l3.6,41.1a12.42,12.42,0,0,1-11.26,13.41l-41.1,3.6A12.42,12.42,0,0,1,147.2,361.4Zm89,402.26-41.09,3.6A12.43,12.43,0,0,1,181.72,756l-3.59-41.1a12.41,12.41,0,0,1,11.25-13.41l41.1-3.6a12.42,12.42,0,0,1,13.41,11.26l3.6,41.09A12.43,12.43,0,0,1,236.23,763.66Zm10.05-246.37q-7.12-6.63-8.3-20.08l-.55-6.34,16.46-1.44.66,7.6q.94,10.77,10,10,4.43-.37,6.49-3.2t1.56-8.66a23.57,23.57,0,0,0-4.24-12q-3.63-5-12.83-11.72-11.59-8.55-16.53-15.85a35.09,35.09,0,0,1-5.79-17Q232,425.48,238,417.7t18.68-8.89q12.51-1.1,19.54,5.55t8.22,20.09l.4,4.59-16.46,1.44-.5-5.7q-.5-5.7-2.94-8.11a8.08,8.08,0,0,0-6.72-2.05q-8.7.76-7.77,11.37a21,21,0,0,0,4.23,10.95q3.69,4.94,12.89,11.63,11.76,8.55,16.55,15.94a38.48,38.48,0,0,1,5.71,17.84q1.19,13.61-4.9,21.48t-18.91,9Q253.4,523.92,246.28,517.29ZM334.88,755l-41.1,3.6a12.42,12.42,0,0,1-13.41-11.26l-3.6-41.1A12.42,12.42,0,0,1,288,692.86l41.09-3.6a12.43,12.43,0,0,1,13.42,11.26l3.59,41.09A12.41,12.41,0,0,1,334.88,755ZM359.4,633.54c-4.74,6.06-12.18,9.58-22.14,10.45l-26.59,2.33-4.66.4-.41-4.66-9.69-110.78-.41-4.66,4.66-.41,26.59-2.33c10-.87,17.9,1.3,23.62,6.45s8.91,12.77,9.8,22.91l4.9,56C366,619.41,364.05,627.58,359.4,633.54Zm14.41,2.55-9.69-110.78-.41-4.66,4.66-.41,25.8-2.26c10.22-.89,18.16,1,23.61,5.63s8.62,12,9.49,21.85l.59,6.81c.57,6.48-.09,12-2,16.53a21.32,21.32,0,0,1-3.55,5.83,18.48,18.48,0,0,1,5.1,5.9c2.43,4.37,3.92,10,4.56,17.3l1.7,19.47a68.54,68.54,0,0,0,.92,7.15,14.4,14.4,0,0,0,1.59,4.27l3.49,6.31-7.18.62-17.72,1.56-3.3.28-1.37-3a30.34,30.34,0,0,1-2-5.87,78.72,78.72,0,0,1-1.16-9.13l-1.77-20.26c-.48-5.51-1.71-7.16-2.07-7.53-.74-.76-2.56-1.08-5-.87l-1.35.12,3.74,42.82.41,4.66-4.66.41-17.41,1.52-4.66.41Zm58.12,110.45L393,750a12.42,12.42,0,0,1-13.41-11.26l-3.6-41.1a12.42,12.42,0,0,1,11.26-13.41l38.93-3.41A12.41,12.41,0,0,1,439.57,692l3.6,41.09A12.42,12.42,0,0,1,431.93,746.54ZM530,738l-38.93,3.4a12.41,12.41,0,0,1-13.4-11.25L474.08,689a12.4,12.4,0,0,1,11.24-13.41l38.93-3.41a12.44,12.44,0,0,1,13.42,11.26l3.59,41.09A12.43,12.43,0,0,1,530,738Zm33.1-113.73-17.41,1.52-4,.36-.93-4-4.09-17.46-11.76,1-1,17.92-.23,4-4,.35-16.15,1.41-4.67.41-.41-4.66,0-.29-.37,5-3.85.34-47.48,4.15-4.66.41-.41-4.66-9.69-110.79-.41-4.66,4.66-.41,47.48-4.15,4.66-.41.41,4.66L490,530.24l.41,4.66-4.66.41-25.41,2.22,1.75,20,19.23-1.68,4.66-.41.41,4.66,1.39,15.83.4,4.66-4.66.41-19.23,1.68,2.16,24.7,25.41-2.22,4.66-.41.41,4.66,1.35,15.54,0-.47,8.35-112.36.29-4,4-.35,23.58-2.06,4-.34,1,3.85,27.74,109.21,1.35,5.33Zm66.11,105-41.09,3.59a12.42,12.42,0,0,1-13.42-11.25l-3.59-41.1a12.41,12.41,0,0,1,11.25-13.41l41.1-3.6a12.44,12.44,0,0,1,13.42,11.26l3.59,41.09A12.42,12.42,0,0,1,629.21,729.28Zm18.4-112.44-16.46,1.44-4.66.41-.41-4.67L624,590.17,622.43,615l-.25,4-4,.35-14.56,1.28-4,.35-1-3.92L592.8,592.9l2.09,23.85.4,4.66-4.66.41-15.19,1.33-4.66.41-.41-4.66-9.69-110.79-.41-4.66,4.66-.41,24.85-2.17,4.05-.36.92,4,10.76,46.8,2.48-48,.21-4.06,4-.36,24.85-2.17,4.66-.41.41,4.66,9.69,110.79.41,4.66Zm80.25,103.81-41.1,3.59A12.41,12.41,0,0,1,673.35,713l-3.6-41.1A12.42,12.42,0,0,1,681,658.48l41.1-3.6a12.42,12.42,0,0,1,13.41,11.26l3.6,41.09A12.43,12.43,0,0,1,727.86,720.65ZM612.66,503.57l-4.14,80.25-.32,0-18-78.32-24.85,2.18L575,618.49l15.19-1.33-7.33-83.88.31,0,20,82.77,14.56-1.27,5.33-85,.31,0,7.34,83.88,16.46-1.44-9.69-110.79Zm-101.29,8.86L503,624.79l16.15-1.41,1.27-22,19.78-1.73,0-.32,5.09,21.72,17.41-1.52L535,510.36Zm9.81,73.77,2.8-55.42.32,0,12.55,54.08Zm5.85-23-.91,17.85,5-.43ZM513.51,407.4l-.32,0-2.8,55.43,15.66-1.37Zm-51.28,205-3-34,23.89-2.09-1.38-15.82-23.9,2.09-2.56-29.28,30.07-2.63L484,514.82,436.52,519l9.69,110.78,47.48-4.15-1.39-15.83Zm-70.5-25.73,6-.52q6-.52,8.73,2.26t3.38,10.39l1.78,20.26a76.37,76.37,0,0,0,1.06,8.52,25.39,25.39,0,0,0,1.71,4.95L432.12,631a19.16,19.16,0,0,1-2.08-5.64,73.08,73.08,0,0,1-1-7.64l-1.7-19.47q-.87-9.81-4-15.44a13.65,13.65,0,0,0-9.62-7l0-.32q11-5.58,9.48-22.84l-.6-6.8q-1.12-13-7.85-18.69t-20.17-4.53l-25.8,2.25,9.69,110.79,17.41-1.53Zm-4.16-47.47,7.92-.7q4.59-.39,7,2.11c1.58,1.67,2.55,4.5,2.9,8.51l.74,8.55q.56,6.33-1.82,9.25t-7.6,3.37l-6.33.56ZM400.64,564c.36-.43,1.14-1.87.79-5.88l-.75-8.55c-.35-4.07-1.34-5.4-1.63-5.71-.54-.57-1.6-.79-3.15-.65l-3.26.28,2,22.33,1.67-.15C398.42,565.45,399.9,564.89,400.64,564Zm-6.09-138.19q-.53-6-2.89-8.52c-1.58-1.67-3.91-2.37-7-2.1l-7.92.69,2.77,31.65,6.33-.55c3.48-.31,6-1.43,7.6-3.38s2.19-5,1.82-9.25Zm-39,127.87q-1.17-13.44-8.28-19.85t-20.07-5.26l-26.59,2.33,9.69,110.78,26.59-2.32q13-1.14,18.86-8.67t4.7-21Zm-14,66.77a8.44,8.44,0,0,1-6.35,3.11l-8.86.77-6.93-79.13,8.87-.77a8.42,8.42,0,0,1,6.79,2c1.67,1.55,2.68,4.23,3,8l5,57.61Q343.56,617.69,341.5,620.42Zm-8.13-65.63c-.32-3.61-1.26-4.74-1.53-5s-1-.92-3.2-.73l-4.21.37,6.11,69.8,4.2-.36c2.21-.2,2.8-1,3-1.28s1-1.57.64-5.19ZM527,563.22l-.91,17.85,5-.43ZM513.51,407.4l-.32,0-2.8,55.43,15.66-1.37ZM395.3,434.32l-.75-8.54q-.53-6-2.89-8.52c-1.58-1.67-3.91-2.37-7-2.1l-7.92.69,2.77,31.65,6.33-.55c3.48-.31,6-1.43,7.6-3.38S395.67,438.54,395.3,434.32ZM338.41,612.4l-5-57.61c-.32-3.61-1.26-4.74-1.53-5s-1-.92-3.2-.73l-4.21.37,6.11,69.8,4.2-.36c2.21-.2,2.8-1,3-1.28S338.73,616,338.41,612.4Zm0,0-5-57.61c-.32-3.61-1.26-4.74-1.53-5s-1-.92-3.2-.73l-4.21.37,6.11,69.8,4.2-.36c2.21-.2,2.8-1,3-1.28S338.73,616,338.41,612.4Zm22-2.72-4.9-56q-1.17-13.44-8.28-19.85t-20.07-5.26l-26.59,2.33,9.69,110.78,26.59-2.32q13-1.14,18.86-8.67T360.41,609.68ZM341.5,620.42a8.44,8.44,0,0,1-6.35,3.11l-8.86.77-6.93-79.13,8.87-.77a8.42,8.42,0,0,1,6.79,2c1.67,1.55,2.68,4.23,3,8l5,57.61Q343.56,617.69,341.5,620.42Zm-8.13-65.63c-.32-3.61-1.26-4.74-1.53-5s-1-.92-3.2-.73l-4.21.37,6.11,69.8,4.2-.36c2.21-.2,2.8-1,3-1.28s1-1.57.64-5.19Zm68.06,3.3-.75-8.55c-.35-4.07-1.34-5.4-1.63-5.71-.54-.57-1.6-.79-3.15-.65l-3.26.28,2,22.33,1.67-.15c2.15-.19,3.63-.75,4.37-1.67C401,563.54,401.78,562.1,401.43,558.09Zm0,0-.75-8.55c-.35-4.07-1.34-5.4-1.63-5.71-.54-.57-1.6-.79-3.15-.65l-3.26.28,2,22.33,1.67-.15c2.15-.19,3.63-.75,4.37-1.67C401,563.54,401.78,562.1,401.43,558.09ZM430,625.35a73.08,73.08,0,0,1-1-7.64l-1.7-19.47q-.87-9.81-4-15.44a13.65,13.65,0,0,0-9.62-7l0-.32q11-5.58,9.48-22.84l-.6-6.8q-1.12-13-7.85-18.69t-20.17-4.53l-25.8,2.25,9.69,110.79,17.41-1.53-4.15-47.48,6-.52q6-.52,8.73,2.26t3.38,10.39l1.78,20.26a76.37,76.37,0,0,0,1.06,8.52,25.39,25.39,0,0,0,1.71,4.95L432.12,631A19.16,19.16,0,0,1,430,625.35Zm-25.77-58.42q-2.37,2.93-7.6,3.37l-6.33.56-2.77-31.65,7.92-.7q4.59-.39,7,2.11c1.58,1.67,2.55,4.5,2.9,8.51l.74,8.55Q406.65,564,404.27,566.93Zm-3.59-17.39c-.35-4.07-1.34-5.4-1.63-5.71-.54-.57-1.6-.79-3.15-.65l-3.26.28,2,22.33,1.67-.15c2.15-.19,3.63-.75,4.37-1.67.36-.43,1.14-1.87.79-5.88Zm91.62,60.24-30.07,2.63-3-34,23.89-2.09-1.38-15.82-23.9,2.09-2.56-29.28,30.07-2.63L484,514.82,436.52,519l9.69,110.78,47.48-4.15ZM527,563.22l-.91,17.85,5-.43ZM513.51,407.4l-.32,0-2.8,55.43,15.66-1.37ZM492.3,609.78l-30.07,2.63-3-34,23.89-2.09-1.38-15.82-23.9,2.09-2.56-29.28,30.07-2.63L484,514.82,436.52,519l9.69,110.78,47.48-4.15Zm-90.87-51.69-.75-8.55c-.35-4.07-1.34-5.4-1.63-5.71-.54-.57-1.6-.79-3.15-.65l-3.26.28,2,22.33,1.67-.15c2.15-.19,3.63-.75,4.37-1.67C401,563.54,401.78,562.1,401.43,558.09Zm0,0-.75-8.55c-.35-4.07-1.34-5.4-1.63-5.71-.54-.57-1.6-.79-3.15-.65l-3.26.28,2,22.33,1.67-.15c2.15-.19,3.63-.75,4.37-1.67C401,563.54,401.78,562.1,401.43,558.09ZM430,625.35a73.08,73.08,0,0,1-1-7.64l-1.7-19.47q-.87-9.81-4-15.44a13.65,13.65,0,0,0-9.62-7l0-.32q11-5.58,9.48-22.84l-.6-6.8q-1.12-13-7.85-18.69t-20.17-4.53l-25.8,2.25,9.69,110.79,17.41-1.53-4.15-47.48,6-.52q6-.52,8.73,2.26t3.38,10.39l1.78,20.26a76.37,76.37,0,0,0,1.06,8.52,25.39,25.39,0,0,0,1.71,4.95L432.12,631A19.16,19.16,0,0,1,430,625.35Zm-25.77-58.42q-2.37,2.93-7.6,3.37l-6.33.56-2.77-31.65,7.92-.7q4.59-.39,7,2.11c1.58,1.67,2.55,4.5,2.9,8.51l.74,8.55Q406.65,564,404.27,566.93Zm-3.59-17.39c-.35-4.07-1.34-5.4-1.63-5.71-.54-.57-1.6-.79-3.15-.65l-3.26.28,2,22.33,1.67-.15c2.15-.19,3.63-.75,4.37-1.67.36-.43,1.14-1.87.79-5.88Zm.75,8.55-.75-8.55c-.35-4.07-1.34-5.4-1.63-5.71-.54-.57-1.6-.79-3.15-.65l-3.26.28,2,22.33,1.67-.15c2.15-.19,3.63-.75,4.37-1.67C401,563.54,401.78,562.1,401.43,558.09Zm0,0-.75-8.55c-.35-4.07-1.34-5.4-1.63-5.71-.54-.57-1.6-.79-3.15-.65l-3.26.28,2,22.33,1.67-.15c2.15-.19,3.63-.75,4.37-1.67C401,563.54,401.78,562.1,401.43,558.09ZM395.3,434.32l-.75-8.54q-.53-6-2.89-8.52c-1.58-1.67-3.91-2.37-7-2.1l-7.92.69,2.77,31.65,6.33-.55c3.48-.31,6-1.43,7.6-3.38S395.67,438.54,395.3,434.32ZM338.41,612.4l-5-57.61c-.32-3.61-1.26-4.74-1.53-5s-1-.92-3.2-.73l-4.21.37,6.11,69.8,4.2-.36c2.21-.2,2.8-1,3-1.28S338.73,616,338.41,612.4Zm0,0-5-57.61c-.32-3.61-1.26-4.74-1.53-5s-1-.92-3.2-.73l-4.21.37,6.11,69.8,4.2-.36c2.21-.2,2.8-1,3-1.28S338.73,616,338.41,612.4Zm22-2.72-4.9-56q-1.17-13.44-8.28-19.85t-20.07-5.26l-26.59,2.33,9.69,110.78,26.59-2.32q13-1.14,18.86-8.67T360.41,609.68ZM341.5,620.42a8.44,8.44,0,0,1-6.35,3.11l-8.86.77-6.93-79.13,8.87-.77a8.42,8.42,0,0,1,6.79,2c1.67,1.55,2.68,4.23,3,8l5,57.61Q343.56,617.69,341.5,620.42Zm-8.13-65.63c-.32-3.61-1.26-4.74-1.53-5s-1-.92-3.2-.73l-4.21.37,6.11,69.8,4.2-.36c2.21-.2,2.8-1,3-1.28s1-1.57.64-5.19Zm5,57.61-5-57.61c-.32-3.61-1.26-4.74-1.53-5s-1-.92-3.2-.73l-4.21.37,6.11,69.8,4.2-.36c2.21-.2,2.8-1,3-1.28S338.73,616,338.41,612.4Zm0,0-5-57.61c-.32-3.61-1.26-4.74-1.53-5s-1-.92-3.2-.73l-4.21.37,6.11,69.8,4.2-.36c2.21-.2,2.8-1,3-1.28S338.73,616,338.41,612.4Zm175.1-205-.32,0-2.8,55.43,15.66-1.37ZM395.3,434.32l-.75-8.54q-.53-6-2.89-8.52c-1.58-1.67-3.91-2.37-7-2.1l-7.92.69,2.77,31.65,6.33-.55c3.48-.31,6-1.43,7.6-3.38S395.67,438.54,395.3,434.32ZM338.41,612.4l-5-57.61c-.32-3.61-1.26-4.74-1.53-5s-1-.92-3.2-.73l-4.21.37,6.11,69.8,4.2-.36c2.21-.2,2.8-1,3-1.28S338.73,616,338.41,612.4Zm0,0-5-57.61c-.32-3.61-1.26-4.74-1.53-5s-1-.92-3.2-.73l-4.21.37,6.11,69.8,4.2-.36c2.21-.2,2.8-1,3-1.28S338.73,616,338.41,612.4Zm0,0-5-57.61c-.32-3.61-1.26-4.74-1.53-5s-1-.92-3.2-.73l-4.21.37,6.11,69.8,4.2-.36c2.21-.2,2.8-1,3-1.28S338.73,616,338.41,612.4Zm0,0-5-57.61c-.32-3.61-1.26-4.74-1.53-5s-1-.92-3.2-.73l-4.21.37,6.11,69.8,4.2-.36c2.21-.2,2.8-1,3-1.28S338.73,616,338.41,612.4Zm22-2.72-4.9-56q-1.17-13.44-8.28-19.85t-20.07-5.26l-26.59,2.33,9.69,110.78,26.59-2.32q13-1.14,18.86-8.67T360.41,609.68ZM341.5,620.42a8.44,8.44,0,0,1-6.35,3.11l-8.86.77-6.93-79.13,8.87-.77a8.42,8.42,0,0,1,6.79,2c1.67,1.55,2.68,4.23,3,8l5,57.61Q343.56,617.69,341.5,620.42Zm-8.13-65.63c-.32-3.61-1.26-4.74-1.53-5s-1-.92-3.2-.73l-4.21.37,6.11,69.8,4.2-.36c2.21-.2,2.8-1,3-1.28s1-1.57.64-5.19Zm5,57.61-5-57.61c-.32-3.61-1.26-4.74-1.53-5s-1-.92-3.2-.73l-4.21.37,6.11,69.8,4.2-.36c2.21-.2,2.8-1,3-1.28S338.73,616,338.41,612.4Zm0,0-5-57.61c-.32-3.61-1.26-4.74-1.53-5s-1-.92-3.2-.73l-4.21.37,6.11,69.8,4.2-.36c2.21-.2,2.8-1,3-1.28S338.73,616,338.41,612.4Zm63-54.31-.75-8.55c-.35-4.07-1.34-5.4-1.63-5.71-.54-.57-1.6-.79-3.15-.65l-3.26.28,2,22.33,1.67-.15c2.15-.19,3.63-.75,4.37-1.67C401,563.54,401.78,562.1,401.43,558.09Zm0,0-.75-8.55c-.35-4.07-1.34-5.4-1.63-5.71-.54-.57-1.6-.79-3.15-.65l-3.26.28,2,22.33,1.67-.15c2.15-.19,3.63-.75,4.37-1.67C401,563.54,401.78,562.1,401.43,558.09Zm0,0-.75-8.55c-.35-4.07-1.34-5.4-1.63-5.71-.54-.57-1.6-.79-3.15-.65l-3.26.28,2,22.33,1.67-.15c2.15-.19,3.63-.75,4.37-1.67C401,563.54,401.78,562.1,401.43,558.09Zm0,0-.75-8.55c-.35-4.07-1.34-5.4-1.63-5.71-.54-.57-1.6-.79-3.15-.65l-3.26.28,2,22.33,1.67-.15c2.15-.19,3.63-.75,4.37-1.67C401,563.54,401.78,562.1,401.43,558.09ZM430,625.35a73.08,73.08,0,0,1-1-7.64l-1.7-19.47q-.87-9.81-4-15.44a13.65,13.65,0,0,0-9.62-7l0-.32q11-5.58,9.48-22.84l-.6-6.8q-1.12-13-7.85-18.69t-20.17-4.53l-25.8,2.25,9.69,110.79,17.41-1.53-4.15-47.48,6-.52q6-.52,8.73,2.26t3.38,10.39l1.78,20.26a76.37,76.37,0,0,0,1.06,8.52,25.39,25.39,0,0,0,1.71,4.95L432.12,631A19.16,19.16,0,0,1,430,625.35Zm-25.77-58.42q-2.37,2.93-7.6,3.37l-6.33.56-2.77-31.65,7.92-.7q4.59-.39,7,2.11c1.58,1.67,2.55,4.5,2.9,8.51l.74,8.55Q406.65,564,404.27,566.93Zm-3.59-17.39c-.35-4.07-1.34-5.4-1.63-5.71-.54-.57-1.6-.79-3.15-.65l-3.26.28,2,22.33,1.67-.15c2.15-.19,3.63-.75,4.37-1.67.36-.43,1.14-1.87.79-5.88Zm.75,8.55-.75-8.55c-.35-4.07-1.34-5.4-1.63-5.71-.54-.57-1.6-.79-3.15-.65l-3.26.28,2,22.33,1.67-.15c2.15-.19,3.63-.75,4.37-1.67C401,563.54,401.78,562.1,401.43,558.09Zm0,0-.75-8.55c-.35-4.07-1.34-5.4-1.63-5.71-.54-.57-1.6-.79-3.15-.65l-3.26.28,2,22.33,1.67-.15c2.15-.19,3.63-.75,4.37-1.67C401,563.54,401.78,562.1,401.43,558.09ZM513.51,407.4l-.32,0-2.8,55.43,15.66-1.37ZM401.43,558.09l-.75-8.55c-.35-4.07-1.34-5.4-1.63-5.71-.54-.57-1.6-.79-3.15-.65l-3.26.28,2,22.33,1.67-.15c2.15-.19,3.63-.75,4.37-1.67C401,563.54,401.78,562.1,401.43,558.09Zm0,0-.75-8.55c-.35-4.07-1.34-5.4-1.63-5.71-.54-.57-1.6-.79-3.15-.65l-3.26.28,2,22.33,1.67-.15c2.15-.19,3.63-.75,4.37-1.67C401,563.54,401.78,562.1,401.43,558.09Zm0,0-.75-8.55c-.35-4.07-1.34-5.4-1.63-5.71-.54-.57-1.6-.79-3.15-.65l-3.26.28,2,22.33,1.67-.15c2.15-.19,3.63-.75,4.37-1.67C401,563.54,401.78,562.1,401.43,558.09Zm0,0-.75-8.55c-.35-4.07-1.34-5.4-1.63-5.71-.54-.57-1.6-.79-3.15-.65l-3.26.28,2,22.33,1.67-.15c2.15-.19,3.63-.75,4.37-1.67C401,563.54,401.78,562.1,401.43,558.09ZM430,625.35a73.08,73.08,0,0,1-1-7.64l-1.7-19.47q-.87-9.81-4-15.44a13.65,13.65,0,0,0-9.62-7l0-.32q11-5.58,9.48-22.84l-.6-6.8q-1.12-13-7.85-18.69t-20.17-4.53l-25.8,2.25,9.69,110.79,17.41-1.53-4.15-47.48,6-.52q6-.52,8.73,2.26t3.38,10.39l1.78,20.26a76.37,76.37,0,0,0,1.06,8.52,25.39,25.39,0,0,0,1.71,4.95L432.12,631A19.16,19.16,0,0,1,430,625.35Zm-25.77-58.42q-2.37,2.93-7.6,3.37l-6.33.56-2.77-31.65,7.92-.7q4.59-.39,7,2.11c1.58,1.67,2.55,4.5,2.9,8.51l.74,8.55Q406.65,564,404.27,566.93Zm-3.59-17.39c-.35-4.07-1.34-5.4-1.63-5.71-.54-.57-1.6-.79-3.15-.65l-3.26.28,2,22.33,1.67-.15c2.15-.19,3.63-.75,4.37-1.67.36-.43,1.14-1.87.79-5.88Zm.75,8.55-.75-8.55c-.35-4.07-1.34-5.4-1.63-5.71-.54-.57-1.6-.79-3.15-.65l-3.26.28,2,22.33,1.67-.15c2.15-.19,3.63-.75,4.37-1.67C401,563.54,401.78,562.1,401.43,558.09Zm0,0-.75-8.55c-.35-4.07-1.34-5.4-1.63-5.71-.54-.57-1.6-.79-3.15-.65l-3.26.28,2,22.33,1.67-.15c2.15-.19,3.63-.75,4.37-1.67C401,563.54,401.78,562.1,401.43,558.09Zm0,0-.75-8.55c-.35-4.07-1.34-5.4-1.63-5.71-.54-.57-1.6-.79-3.15-.65l-3.26.28,2,22.33,1.67-.15c2.15-.19,3.63-.75,4.37-1.67C401,563.54,401.78,562.1,401.43,558.09Zm0,0-.75-8.55c-.35-4.07-1.34-5.4-1.63-5.71-.54-.57-1.6-.79-3.15-.65l-3.26.28,2,22.33,1.67-.15c2.15-.19,3.63-.75,4.37-1.67C401,563.54,401.78,562.1,401.43,558.09ZM395.3,434.32l-.75-8.54q-.53-6-2.89-8.52c-1.58-1.67-3.91-2.37-7-2.1l-7.92.69,2.77,31.65,6.33-.55c3.48-.31,6-1.43,7.6-3.38S395.67,438.54,395.3,434.32ZM338.41,612.4l-5-57.61c-.32-3.61-1.26-4.74-1.53-5s-1-.92-3.2-.73l-4.21.37,6.11,69.8,4.2-.36c2.21-.2,2.8-1,3-1.28S338.73,616,338.41,612.4Zm0,0-5-57.61c-.32-3.61-1.26-4.74-1.53-5s-1-.92-3.2-.73l-4.21.37,6.11,69.8,4.2-.36c2.21-.2,2.8-1,3-1.28S338.73,616,338.41,612.4Zm0,0-5-57.61c-.32-3.61-1.26-4.74-1.53-5s-1-.92-3.2-.73l-4.21.37,6.11,69.8,4.2-.36c2.21-.2,2.8-1,3-1.28S338.73,616,338.41,612.4Zm0,0-5-57.61c-.32-3.61-1.26-4.74-1.53-5s-1-.92-3.2-.73l-4.21.37,6.11,69.8,4.2-.36c2.21-.2,2.8-1,3-1.28S338.73,616,338.41,612.4Zm22-2.72-4.9-56q-1.17-13.44-8.28-19.85t-20.07-5.26l-26.59,2.33,9.69,110.78,26.59-2.32q13-1.14,18.86-8.67T360.41,609.68ZM341.5,620.42a8.44,8.44,0,0,1-6.35,3.11l-8.86.77-6.93-79.13,8.87-.77a8.42,8.42,0,0,1,6.79,2c1.67,1.55,2.68,4.23,3,8l5,57.61Q343.56,617.69,341.5,620.42Zm-8.13-65.63c-.32-3.61-1.26-4.74-1.53-5s-1-.92-3.2-.73l-4.21.37,6.11,69.8,4.2-.36c2.21-.2,2.8-1,3-1.28s1-1.57.64-5.19Zm5,57.61-5-57.61c-.32-3.61-1.26-4.74-1.53-5s-1-.92-3.2-.73l-4.21.37,6.11,69.8,4.2-.36c2.21-.2,2.8-1,3-1.28S338.73,616,338.41,612.4Zm0,0-5-57.61c-.32-3.61-1.26-4.74-1.53-5s-1-.92-3.2-.73l-4.21.37,6.11,69.8,4.2-.36c2.21-.2,2.8-1,3-1.28S338.73,616,338.41,612.4Zm0,0-5-57.61c-.32-3.61-1.26-4.74-1.53-5s-1-.92-3.2-.73l-4.21.37,6.11,69.8,4.2-.36c2.21-.2,2.8-1,3-1.28S338.73,616,338.41,612.4Zm0,0-5-57.61c-.32-3.61-1.26-4.74-1.53-5s-1-.92-3.2-.73l-4.21.37,6.11,69.8,4.2-.36c2.21-.2,2.8-1,3-1.28S338.73,616,338.41,612.4Zm175.1-205-.32,0-2.8,55.43,15.66-1.37ZM395.3,434.32l-.75-8.54q-.53-6-2.89-8.52c-1.58-1.67-3.91-2.37-7-2.1l-7.92.69,2.77,31.65,6.33-.55c3.48-.31,6-1.43,7.6-3.38S395.67,438.54,395.3,434.32ZM338.41,612.4l-5-57.61c-.32-3.61-1.26-4.74-1.53-5s-1-.92-3.2-.73l-4.21.37,6.11,69.8,4.2-.36c2.21-.2,2.8-1,3-1.28S338.73,616,338.41,612.4Zm0,0-5-57.61c-.32-3.61-1.26-4.74-1.53-5s-1-.92-3.2-.73l-4.21.37,6.11,69.8,4.2-.36c2.21-.2,2.8-1,3-1.28S338.73,616,338.41,612.4Zm0,0-5-57.61c-.32-3.61-1.26-4.74-1.53-5s-1-.92-3.2-.73l-4.21.37,6.11,69.8,4.2-.36c2.21-.2,2.8-1,3-1.28S338.73,616,338.41,612.4Zm0,0-5-57.61c-.32-3.61-1.26-4.74-1.53-5s-1-.92-3.2-.73l-4.21.37,6.11,69.8,4.2-.36c2.21-.2,2.8-1,3-1.28S338.73,616,338.41,612.4Zm0,0-5-57.61c-.32-3.61-1.26-4.74-1.53-5s-1-.92-3.2-.73l-4.21.37,6.11,69.8,4.2-.36c2.21-.2,2.8-1,3-1.28S338.73,616,338.41,612.4Zm0,0-5-57.61c-.32-3.61-1.26-4.74-1.53-5s-1-.92-3.2-.73l-4.21.37,6.11,69.8,4.2-.36c2.21-.2,2.8-1,3-1.28S338.73,616,338.41,612.4Zm22-2.72-4.9-56q-1.17-13.44-8.28-19.85t-20.07-5.26l-26.59,2.33,9.69,110.78,26.59-2.32q13-1.14,18.86-8.67T360.41,609.68ZM341.5,620.42a8.44,8.44,0,0,1-6.35,3.11l-8.86.77-6.93-79.13,8.87-.77a8.42,8.42,0,0,1,6.79,2c1.67,1.55,2.68,4.23,3,8l5,57.61Q343.56,617.69,341.5,620.42Zm-8.13-65.63c-.32-3.61-1.26-4.74-1.53-5s-1-.92-3.2-.73l-4.21.37,6.11,69.8,4.2-.36c2.21-.2,2.8-1,3-1.28s1-1.57.64-5.19Zm5,57.61-5-57.61c-.32-3.61-1.26-4.74-1.53-5s-1-.92-3.2-.73l-4.21.37,6.11,69.8,4.2-.36c2.21-.2,2.8-1,3-1.28S338.73,616,338.41,612.4Zm0,0-5-57.61c-.32-3.61-1.26-4.74-1.53-5s-1-.92-3.2-.73l-4.21.37,6.11,69.8,4.2-.36c2.21-.2,2.8-1,3-1.28S338.73,616,338.41,612.4Zm0,0-5-57.61c-.32-3.61-1.26-4.74-1.53-5s-1-.92-3.2-.73l-4.21.37,6.11,69.8,4.2-.36c2.21-.2,2.8-1,3-1.28S338.73,616,338.41,612.4Zm0,0-5-57.61c-.32-3.61-1.26-4.74-1.53-5s-1-.92-3.2-.73l-4.21.37,6.11,69.8,4.2-.36c2.21-.2,2.8-1,3-1.28S338.73,616,338.41,612.4Zm175.1-205-.32,0-2.8,55.43,15.66-1.37ZM395.3,434.32l-.75-8.54q-.53-6-2.89-8.52c-1.58-1.67-3.91-2.37-7-2.1l-7.92.69,2.77,31.65,6.33-.55c3.48-.31,6-1.43,7.6-3.38S395.67,438.54,395.3,434.32ZM338.41,612.4l-5-57.61c-.32-3.61-1.26-4.74-1.53-5s-1-.92-3.2-.73l-4.21.37,6.11,69.8,4.2-.36c2.21-.2,2.8-1,3-1.28S338.73,616,338.41,612.4Zm0,0-5-57.61c-.32-3.61-1.26-4.74-1.53-5s-1-.92-3.2-.73l-4.21.37,6.11,69.8,4.2-.36c2.21-.2,2.8-1,3-1.28S338.73,616,338.41,612.4Zm0,0-5-57.61c-.32-3.61-1.26-4.74-1.53-5s-1-.92-3.2-.73l-4.21.37,6.11,69.8,4.2-.36c2.21-.2,2.8-1,3-1.28S338.73,616,338.41,612.4Zm0,0-5-57.61c-.32-3.61-1.26-4.74-1.53-5s-1-.92-3.2-.73l-4.21.37,6.11,69.8,4.2-.36c2.21-.2,2.8-1,3-1.28S338.73,616,338.41,612.4Zm0,0-5-57.61c-.32-3.61-1.26-4.74-1.53-5s-1-.92-3.2-.73l-4.21.37,6.11,69.8,4.2-.36c2.21-.2,2.8-1,3-1.28S338.73,616,338.41,612.4Zm0,0-5-57.61c-.32-3.61-1.26-4.74-1.53-5s-1-.92-3.2-.73l-4.21.37,6.11,69.8,4.2-.36c2.21-.2,2.8-1,3-1.28S338.73,616,338.41,612.4Zm22-2.72-4.9-56q-1.17-13.44-8.28-19.85t-20.07-5.26l-26.59,2.33,9.69,110.78,26.59-2.32q13-1.14,18.86-8.67T360.41,609.68ZM341.5,620.42a8.44,8.44,0,0,1-6.35,3.11l-8.86.77-6.93-79.13,8.87-.77a8.42,8.42,0,0,1,6.79,2c1.67,1.55,2.68,4.23,3,8l5,57.61Q343.56,617.69,341.5,620.42Zm-8.13-65.63c-.32-3.61-1.26-4.74-1.53-5s-1-.92-3.2-.73l-4.21.37,6.11,69.8,4.2-.36c2.21-.2,2.8-1,3-1.28s1-1.57.64-5.19Zm5,57.61-5-57.61c-.32-3.61-1.26-4.74-1.53-5s-1-.92-3.2-.73l-4.21.37,6.11,69.8,4.2-.36c2.21-.2,2.8-1,3-1.28S338.73,616,338.41,612.4Zm0,0-5-57.61c-.32-3.61-1.26-4.74-1.53-5s-1-.92-3.2-.73l-4.21.37,6.11,69.8,4.2-.36c2.21-.2,2.8-1,3-1.28S338.73,616,338.41,612.4Zm0,0-5-57.61c-.32-3.61-1.26-4.74-1.53-5s-1-.92-3.2-.73l-4.21.37,6.11,69.8,4.2-.36c2.21-.2,2.8-1,3-1.28S338.73,616,338.41,612.4Zm0,0-5-57.61c-.32-3.61-1.26-4.74-1.53-5s-1-.92-3.2-.73l-4.21.37,6.11,69.8,4.2-.36c2.21-.2,2.8-1,3-1.28S338.73,616,338.41,612.4Zm0,0-5-57.61c-.32-3.61-1.26-4.74-1.53-5s-1-.92-3.2-.73l-4.21.37,6.11,69.8,4.2-.36c2.21-.2,2.8-1,3-1.28S338.73,616,338.41,612.4Zm0,0-5-57.61c-.32-3.61-1.26-4.74-1.53-5s-1-.92-3.2-.73l-4.21.37,6.11,69.8,4.2-.36c2.21-.2,2.8-1,3-1.28S338.73,616,338.41,612.4Zm175.1-205-.32,0-2.8,55.43,15.66-1.37ZM395.3,434.32l-.75-8.54q-.53-6-2.89-8.52c-1.58-1.67-3.91-2.37-7-2.1l-7.92.69,2.77,31.65,6.33-.55c3.48-.31,6-1.43,7.6-3.38S395.67,438.54,395.3,434.32ZM513.51,407.4l-.32,0-2.8,55.43,15.66-1.37ZM395.3,434.32l-.75-8.54q-.53-6-2.89-8.52c-1.58-1.67-3.91-2.37-7-2.1l-7.92.69,2.77,31.65,6.33-.55c3.48-.31,6-1.43,7.6-3.38S395.67,438.54,395.3,434.32ZM513.51,407.4l-.32,0-2.8,55.43,15.66-1.37ZM395.3,434.32l-.75-8.54q-.53-6-2.89-8.52c-1.58-1.67-3.91-2.37-7-2.1l-7.92.69,2.77,31.65,6.33-.55c3.48-.31,6-1.43,7.6-3.38S395.67,438.54,395.3,434.32ZM513.51,407.4l-.32,0-2.8,55.43,15.66-1.37ZM395.3,434.32l-.75-8.54q-.53-6-2.89-8.52c-1.58-1.67-3.91-2.37-7-2.1l-7.92.69,2.77,31.65,6.33-.55c3.48-.31,6-1.43,7.6-3.38S395.67,438.54,395.3,434.32ZM513.51,407.4l-.32,0-2.8,55.43,15.66-1.37Zm0,0-.32,0-2.8,55.43,15.66-1.37Z"/></svg>
